<?xml version="1.0" encoding="UTF-8"?>
<!DOCTYPE svg PUBLIC "-//W3C//DTD SVG 1.1//EN" "http://www.w3.org/Graphics/SVG/1.1/DTD/svg11.dtd">
<!-- Creator: CorelDRAW X6 -->
<svg xmlns="http://www.w3.org/2000/svg" xml:space="preserve" width="128px" height="34px" version="1.1" style="shape-rendering:geometricPrecision; text-rendering:geometricPrecision; image-rendering:optimizeQuality; fill-rule:evenodd; clip-rule:evenodd"
viewBox="0 0 128 34"
 xmlns:xlink="http://www.w3.org/1999/xlink">
 <defs>
  <style type="text/css">
   <![CDATA[
    .fil0 {fill:black}
   ]]>
  </style>
 </defs>
 <g id="Слой_x0020_1">
  <metadata id="CorelCorpID_0Corel-Layer"/>
  <g id="_304163240">
   <path class="fil0" d="M39 16c0,2 1,10 -3,10l0 -9 3 -1zm2 12c1,-1 5,-5 5,-5 0,-2 0,-6 -1,-8 -1,-1 -2,-2 -5,-3 0,0 -2,2 -4,3l0 -2 -8 -1c1,8 1,14 0,21l8 1 0 -6c2,0 3,0 5,0z"/>
   <path class="fil0" d="M15 21c-1,2 -3,2 -5,2l0 -5 0 0 6 -2c0,1 0,1 0,2 0,0 -1,3 -1,3zm-5 -6c0,-3 1,-5 1,-7 2,0 4,0 7,0 4,0 6,-5 7,-7 -4,0 -17,0 -19,-1 -1,2 -6,6 -6,7l0 20c3,0 7,0 14,1 3,1 2,1 5,1 0,-1 1,-2 2,-3 1,-1 2,-2 3,-3 1,-3 2,-3 2,-3 -1,0 -1,-2 -1,-2l0 -3c-1,-1 -2,-2 -5,-3 -4,-2 -3,-1 -5,1 -1,1 -4,1 -5,2z"/>
   <path class="fil0" d="M70 18c0,2 0,4 0,6 -2,0 -3,0 -4,-1l-1 -5 5 0zm-14 3c1,0 2,0 3,0 0,3 0,7 0,7 4,1 10,1 12,1 0,-1 3,-5 4,-6 0,0 0,0 0,-1 0,-3 -1,-5 0,-8 -5,0 -8,-1 -11,-2 -1,1 -3,3 -5,4 0,1 0,1 0,2 0,0 0,0 0,1 -1,0 -3,0 -4,0 0,0 0,0 0,0 0,-2 0,-4 1,-6 -1,0 -2,0 -2,0 -2,1 -4,1 -6,1 0,1 0,2 0,2l1 0c0,2 0,7 0,9 0,2 3,3 4,4 2,-1 4,-5 5,-6 -1,0 -2,-1 -2,-2z"/>
   <path class="fil0" d="M77 13c1,5 1,12 0,16 1,0 6,-1 8,0 0,-2 -1,-10 -1,-10 0,-2 2,-2 4,-1 1,0 1,0 2,1l3 -6c0,0 -6,-1 -6,-1 0,0 -10,1 -10,1z"/>
   <path class="fil0" d="M118 16c0,0 1,0 1,0 2,1 1,0 2,2 -1,0 -1,0 -2,0 0,1 -1,1 -1,1l0 -3zm0 5c1,-1 1,-1 2,-1 2,-1 5,-2 7,-2l-2 -5c-1,0 -3,0 -4,0 -3,0 -3,-1 -5,-1l-5 5 1 10c2,0 6,1 8,1 1,1 2,1 3,1 1,-1 1,-1 1,-1 1,-2 2,-3 4,-4l-1 -4 -6 1c0,0 0,0 0,0l0 1c0,1 -1,3 -3,3 0,-1 0,-4 0,-4z"/>
   <path class="fil0" d="M95 13c0,5 0,12 -1,16 2,0 6,-1 8,0 0,-2 0,-10 0,-10 0,-2 2,-2 3,-1 2,0 2,0 3,1l3 -6c0,0 -6,-1 -6,-1 0,0 -10,1 -10,1z"/>
  </g>
 </g>
</svg>
